<?xml version="1.0" standalone="no"?>
<!DOCTYPE svg PUBLIC "-//W3C//DTD SVG 20010904//EN"
 "http://www.w3.org/TR/2001/REC-SVG-20010904/DTD/svg10.dtd">
<svg version="1.0" xmlns="http://www.w3.org/2000/svg"
 width="512.000000pt" height="512.000000pt" viewBox="0 0 512.000000 512.000000"
 preserveAspectRatio="xMidYMid meet">

<g transform="translate(0.000000,512.000000) scale(0.100000,-0.100000)"
fill="#000000" stroke="none">
<path d="M1592 4924 c-49 -34 -47 -51 29 -241 l70 -177 -22 -40 c-230 -422
-511 -718 -898 -948 -109 -65 -114 -67 -145 -54 -329 139 -331 140 -368 137
-48 -3 -75 -84 -40 -119 10 -10 91 -49 180 -86 89 -38 166 -74 170 -80 5 -6
21 -54 35 -106 71 -254 90 -394 90 -650 0 -225 -13 -339 -63 -545 -44 -184
-23 -161 -229 -245 -99 -40 -188 -81 -197 -91 -22 -24 -20 -75 2 -100 28 -31
70 -23 244 47 l165 66 110 -62 c388 -220 695 -527 908 -910 l36 -65 -74 -174
c-73 -171 -79 -188 -76 -223 3 -49 84 -75 119 -40 11 11 50 92 87 181 37 88
73 165 79 170 27 21 278 82 441 107 155 24 470 24 630 0 124 -19 382 -79 396
-93 5 -5 40 -87 79 -183 86 -213 116 -247 178 -204 50 35 48 52 -29 243 l-71
176 62 110 c220 388 535 702 910 908 l65 36 175 -75 c195 -83 229 -88 263 -42
21 29 18 65 -8 91 -8 8 -87 45 -175 83 -88 37 -164 72 -169 78 -4 6 -20 54
-34 106 -71 254 -90 394 -90 650 0 225 13 339 63 545 44 185 23 162 229 245
217 86 249 115 205 178 -34 50 -52 47 -242 -29 l-177 -71 -85 48 c-404 225
-720 539 -933 924 l-36 65 74 174 c73 170 79 188 76 223 -3 49 -84 75 -119 40
-11 -11 -50 -92 -87 -181 -37 -88 -73 -165 -79 -170 -6 -4 -54 -20 -106 -34
-254 -71 -394 -90 -650 -90 -224 0 -336 13 -545 63 -184 44 -161 22 -245 230
-88 216 -115 248 -178 204z m1641 -581 c-4 -10 -39 -92 -78 -183 -81 -190 -51
-168 -275 -195 -175 -21 -477 -21 -646 0 -71 9 -138 18 -149 21 -15 4 -37 47
-92 182 -39 97 -70 178 -69 180 2 1 59 -9 127 -22 209 -42 295 -50 514 -50
224 0 355 14 540 58 128 30 136 31 128 9z m-1394 -203 c39 -97 71 -182 71
-190 0 -32 -183 -254 -334 -405 -147 -146 -353 -319 -380 -318 -10 0 -347 141
-354 148 -2 1 43 33 100 70 218 143 412 316 569 508 85 103 197 265 233 335
10 19 19 32 21 30 1 -1 35 -82 74 -178z m1624 13 c108 -162 216 -291 353 -422
119 -114 301 -254 424 -327 44 -26 79 -49 76 -51 -2 -2 -86 -37 -187 -77
l-183 -74 -76 56 c-210 154 -423 362 -576 565 -73 97 -74 98 -60 130 68 162
140 327 141 327 2 0 41 -57 88 -127z m-1112 -354 c162 -12 388 -8 554 12 53 6
98 9 100 7 4 -4 -131 -327 -140 -337 -20 -19 -571 -18 -591 1 -8 9 -134 318
-134 331 0 5 13 7 29 4 15 -3 98 -11 182 -18z m-297 -194 c49 -118 66 -171 60
-187 -8 -27 -387 -408 -406 -408 -15 0 -318 128 -331 140 -4 4 34 40 85 81
121 96 354 331 443 447 39 50 73 91 76 92 3 0 36 -74 73 -165z m1249 -31 c104
-121 257 -268 379 -362 48 -37 87 -70 87 -73 1 -4 -73 -37 -163 -74 -122 -50
-170 -65 -187 -60 -27 9 -409 387 -409 405 0 11 57 151 120 295 l22 50 32 -39
c17 -22 71 -86 119 -142z m-513 -267 c0 -21 -225 -536 -231 -529 -6 6 -219
526 -219 534 0 2 101 3 225 3 124 0 225 -4 225 -8z m-486 -317 c60 -149 107
-273 104 -275 -4 -4 -518 208 -536 220 -3 3 311 323 318 324 3 0 54 -121 114
-269z m795 99 c89 -89 161 -162 159 -164 -15 -11 -540 -217 -543 -213 -4 4
215 536 221 538 1 0 74 -73 163 -161z m-2142 68 l171 -72 11 -70 c40 -256 46
-566 17 -790 -9 -71 -19 -137 -22 -145 -4 -15 -354 -164 -363 -154 -2 2 6 48
18 101 82 370 76 786 -18 1141 -17 67 -18 73 -3 68 10 -4 94 -39 189 -79z
m3369 -83 c-41 -200 -50 -297 -50 -524 1 -230 13 -339 60 -547 14 -63 24 -116
22 -118 -2 -2 -84 31 -183 73 l-180 77 -17 100 c-27 157 -38 398 -28 580 8
138 32 332 42 340 9 7 353 143 356 140 2 -1 -8 -56 -22 -121z m-2819 -151
l132 -56 7 -41 c11 -65 8 -520 -4 -542 -10 -18 -328 -152 -337 -142 -3 3 0 38
5 79 26 193 23 485 -7 736 l-6 54 39 -16 c21 -8 98 -41 171 -72z m2309 18
c-29 -181 -31 -526 -5 -718 6 -45 9 -88 7 -97 -2 -12 -37 -1 -170 55 l-166 71
-8 52 c-9 64 -9 472 0 513 7 29 17 35 164 96 86 36 163 65 171 66 10 1 12 -8
7 -38z m-1721 -267 c140 -60 251 -111 247 -115 -6 -6 -526 -219 -534 -219 -2
0 -3 101 -3 226 0 208 1 225 17 221 10 -3 132 -54 273 -113z m1220 -119 c0
-124 -4 -225 -8 -225 -4 0 -127 51 -273 112 -177 75 -261 116 -252 121 13 9
519 216 528 216 3 1 5 -100 5 -224z m-908 -157 c-7 -20 -220 -523 -222 -526
-1 -1 -75 70 -164 159 -89 88 -161 162 -159 163 12 9 526 215 537 215 7 1 11
-5 8 -11z m583 -104 c140 -59 256 -108 258 -109 1 -1 -70 -75 -159 -164 -88
-89 -162 -161 -163 -159 -7 9 -216 534 -216 542 0 4 6 6 13 3 6 -3 127 -53
267 -113z m-316 -221 c58 -145 106 -264 106 -265 0 -2 -101 -3 -226 -3 -208 0
-225 1 -221 17 13 49 222 527 228 520 4 -4 55 -125 113 -269z m-901 -17 c88
-77 337 -334 337 -349 0 -13 -129 -319 -139 -330 -4 -4 -41 34 -81 85 -95 120
-342 365 -453 448 -47 36 -86 68 -86 71 -1 4 52 28 117 54 64 26 135 56 157
65 22 10 48 19 57 19 10 1 50 -28 91 -63z m1807 -12 c85 -36 159 -70 163 -74
4 -4 -34 -40 -85 -80 -119 -95 -353 -331 -443 -448 -38 -50 -73 -91 -76 -91
-4 -1 -37 74 -73 165 -45 111 -65 173 -60 187 8 27 387 407 406 407 8 0 83
-30 168 -66z m-2285 -216 c141 -105 416 -380 523 -521 l81 -108 -35 -82 c-20
-45 -54 -127 -77 -181 -37 -90 -42 -97 -55 -80 -7 10 -42 63 -78 118 -180 275
-455 543 -742 723 -51 32 -92 63 -90 68 2 12 314 143 343 144 11 0 70 -36 130
-81z m2888 -40 c55 -23 94 -45 89 -50 -4 -4 -39 -27 -78 -51 -139 -86 -272
-194 -419 -342 -154 -153 -251 -272 -353 -435 -31 -50 -61 -91 -66 -91 -10 0
-146 327 -146 351 0 28 164 234 289 362 126 130 233 226 354 316 l68 51 82
-35 c45 -20 126 -54 180 -76z m-1348 -149 c14 -5 38 -52 84 -169 35 -88 61
-163 59 -165 -3 -3 -42 0 -89 7 -120 16 -520 16 -657 -1 -62 -7 -114 -12 -117
-10 -3 4 131 328 140 338 18 17 534 18 580 0z m65 -485 c69 -8 132 -17 140
-20 15 -4 164 -354 155 -362 -2 -2 -48 5 -102 17 -384 83 -762 78 -1126 -13
-76 -19 -87 -20 -82 -7 3 9 38 93 78 188 72 170 72 171 107 176 19 3 71 11
115 17 203 30 479 32 715 4z"/>
</g>
</svg>
